<mxfile host="seqgen" agent="seqgen" version="26.2.2"><diagram name="Diagram" id="1001"><mxGraphModel dx="0" dy="0" grid="1" gridSize="10" guides="1" tooltips="1" connect="1" arrows="1" fold="1" page="0" pageScale="1" pageWidth="850" pageHeight="1100" background="#ffffff" math="0" shadow="0"><root><mxCell id="0" /><mxCell id="1" parent="0" /><mxCell id="1002" value="A" parent="1" style="shape=umlLifeline;perimeter=lifelinePerimeter;whiteSpace=wrap;html=1;container=1;dropTarget=0;collapsible=0;recursiveResize=0;outlineConnect=0;portConstraint=eastwest;newEdgeStyle={&quot;curved&quot;:0,&quot;rounded&quot;:0};" vertex="1"><mxGeometry x="0" y="0" width="160" height="540" as="geometry" /></mxCell><mxCell id="1003" value="B" parent="1" style="shape=umlLifeline;perimeter=lifelinePerimeter;whiteSpace=wrap;html=1;container=1;dropTarget=0;collapsible=0;recursiveResize=0;outlineConnect=0;portConstraint=eastwest;newEdgeStyle={&quot;curved&quot;:0,&quot;rounded&quot;:0};" vertex="1"><mxGeometry x="200" y="0" width="160" height="540" as="geometry" /></mxCell><mxCell id="1004" value="C" parent="1" style="shape=umlLifeline;perimeter=lifelinePerimeter;whiteSpace=wrap;html=1;container=1;dropTarget=0;collapsible=0;recursiveResize=0;outlineConnect=0;portConstraint=eastwest;newEdgeStyle={&quot;curved&quot;:0,&quot;rounded&quot;:0};" vertex="1"><mxGeometry x="400" y="0" width="160" height="540" as="geometry" /></mxCell><mxCell id="1005" value="" parent="1002" style="html=1;points=[[0,0,0,0,5],[0,1,0,0,-5],[1,0,0,0,5],[1,1,0,0,-5]];perimeter=orthogonalPerimeter;outlineConnect=0;targetShapes=umlLifeline;portConstraint=eastwest;newEdgeStyle={&quot;curved&quot;:0,&quot;rounded&quot;:0};" vertex="1"><mxGeometry x="75.0" y="60" width="10" height="430" as="geometry" /></mxCell><mxCell id="1006" value="" parent="1003" style="html=1;points=[[0,0,0,0,5],[0,1,0,0,-5],[1,0,0,0,5],[1,1,0,0,-5]];perimeter=orthogonalPerimeter;outlineConnect=0;targetShapes=umlLifeline;portConstraint=eastwest;newEdgeStyle={&quot;curved&quot;:0,&quot;rounded&quot;:0};" vertex="1"><mxGeometry x="75.0" y="70" width="10" height="430" as="geometry" /></mxCell><mxCell id="1007" value="" parent="1004" style="html=1;points=[[0,0,0,0,5],[0,1,0,0,-5],[1,0,0,0,5],[1,1,0,0,-5]];perimeter=orthogonalPerimeter;outlineConnect=0;targetShapes=umlLifeline;portConstraint=eastwest;newEdgeStyle={&quot;curved&quot;:0,&quot;rounded&quot;:0};" vertex="1"><mxGeometry x="75.0" y="80" width="10" height="430" as="geometry" /></mxCell><mxCell id="1008" value="" parent="1" style="html=1;curved=0;rounded=0;verticalAlign=bottom;endArrow=block;dashed=0;" edge="1" source="1005" target="1006"><mxGeometry relative="1" as="geometry"><mxPoint as="targetPoint" /><mxPoint as="sourcePoint" /><Array as="points"><mxPoint x="180.0" y="90" /></Array></mxGeometry></mxCell><mxCell id="1009" value="" parent="1" style="html=1;curved=0;rounded=0;verticalAlign=bottom;endArrow=block;dashed=1;" edge="1" source="1005" target="1006"><mxGeometry relative="1" as="geometry"><mxPoint as="targetPoint" /><mxPoint as="sourcePoint" /><Array as="points"><mxPoint x="180.0" y="110" /></Array></mxGeometry></mxCell><mxCell id="1010" value="" parent="1" style="html=1;curved=0;rounded=0;verticalAlign=bottom;endArrow=open;dashed=0;" edge="1" source="1005" target="1006"><mxGeometry relative="1" as="geometry"><mxPoint as="targetPoint" /><mxPoint as="sourcePoint" /><Array as="points"><mxPoint x="180.0" y="130" /></Array></mxGeometry></mxCell><mxCell id="1011" value="" parent="1" style="html=1;curved=0;rounded=0;verticalAlign=bottom;endArrow=open;dashed=1;" edge="1" source="1005" target="1006"><mxGeometry relative="1" as="geometry"><mxPoint as="targetPoint" /><mxPoint as="sourcePoint" /><Array as="points"><mxPoint x="180.0" y="150" /></Array></mxGeometry></mxCell><mxCell id="1012" value="" parent="1003" style="html=1;points=[[0,0,0,0,5],[0,1,0,0,-5],[1,0,0,0,5],[1,1,0,0,-5]];perimeter=orthogonalPerimeter;outlineConnect=0;targetShapes=umlLifeline;portConstraint=eastwest;newEdgeStyle={&quot;curved&quot;:0,&quot;rounded&quot;:0};" vertex="1"><mxGeometry x="70.0" y="160" width="10" height="20" as="geometry" /></mxCell><mxCell id="1013" value="" parent="1" style="html=1;curved=0;rounded=0;verticalAlign=bottom;endArrow=block;dashed=0;" edge="1" source="1005" target="1012"><mxGeometry relative="1" as="geometry"><mxPoint as="targetPoint" /><mxPoint as="sourcePoint" /><Array as="points"><mxPoint x="180.0" y="170" /></Array></mxGeometry></mxCell><mxCell id="1014" value="" parent="1003" style="html=1;points=[[0,0,0,0,5],[0,1,0,0,-5],[1,0,0,0,5],[1,1,0,0,-5]];perimeter=orthogonalPerimeter;outlineConnect=0;targetShapes=umlLifeline;portConstraint=eastwest;newEdgeStyle={&quot;curved&quot;:0,&quot;rounded&quot;:0};" vertex="1"><mxGeometry x="70.0" y="190" width="10" height="20" as="geometry" /></mxCell><mxCell id="1015" value="" parent="1" style="html=1;curved=0;rounded=0;verticalAlign=bottom;endArrow=block;dashed=1;" edge="1" source="1005" target="1014"><mxGeometry relative="1" as="geometry"><mxPoint as="targetPoint" /><mxPoint as="sourcePoint" /><Array as="points"><mxPoint x="180.0" y="200" /></Array></mxGeometry></mxCell><mxCell id="1016" value="" parent="1003" style="html=1;points=[[0,0,0,0,5],[0,1,0,0,-5],[1,0,0,0,5],[1,1,0,0,-5]];perimeter=orthogonalPerimeter;outlineConnect=0;targetShapes=umlLifeline;portConstraint=eastwest;newEdgeStyle={&quot;curved&quot;:0,&quot;rounded&quot;:0};" vertex="1"><mxGeometry x="70.0" y="220" width="10" height="20" as="geometry" /></mxCell><mxCell id="1017" value="" parent="1" style="html=1;curved=0;rounded=0;verticalAlign=bottom;endArrow=open;dashed=0;" edge="1" source="1005" target="1016"><mxGeometry relative="1" as="geometry"><mxPoint as="targetPoint" /><mxPoint as="sourcePoint" /><Array as="points"><mxPoint x="180.0" y="230" /></Array></mxGeometry></mxCell><mxCell id="1018" value="" parent="1003" style="html=1;points=[[0,0,0,0,5],[0,1,0,0,-5],[1,0,0,0,5],[1,1,0,0,-5]];perimeter=orthogonalPerimeter;outlineConnect=0;targetShapes=umlLifeline;portConstraint=eastwest;newEdgeStyle={&quot;curved&quot;:0,&quot;rounded&quot;:0};" vertex="1"><mxGeometry x="70.0" y="250" width="10" height="20" as="geometry" /></mxCell><mxCell id="1019" value="" parent="1" style="html=1;curved=0;rounded=0;verticalAlign=bottom;endArrow=open;dashed=1;" edge="1" source="1005" target="1018"><mxGeometry relative="1" as="geometry"><mxPoint as="targetPoint" /><mxPoint as="sourcePoint" /><Array as="points"><mxPoint x="180.0" y="260" /></Array></mxGeometry></mxCell><mxCell id="1020" value="short message" parent="1" style="html=1;curved=0;rounded=0;verticalAlign=bottom;endArrow=block;dashed=0;" edge="1" source="1005" target="1006"><mxGeometry relative="1" as="geometry"><mxPoint as="targetPoint" /><mxPoint as="sourcePoint" /><Array as="points"><mxPoint x="180.0" y="290" /></Array></mxGeometry></mxCell><mxCell id="1021" value="longer message which spans&lt;br/&gt;over multiple lines" parent="1" style="html=1;curved=0;rounded=0;verticalAlign=bottom;endArrow=block;dashed=0;" edge="1" source="1005" target="1006"><mxGeometry relative="1" as="geometry"><mxPoint as="targetPoint" /><mxPoint as="sourcePoint" /><Array as="points"><mxPoint x="180.0" y="330" /></Array></mxGeometry></mxCell><mxCell id="1022" value="message" parent="1" style="html=1;curved=0;rounded=0;verticalAlign=bottom;endArrow=block;dashed=0;" edge="1" source="1005" target="1006"><mxGeometry relative="1" as="geometry"><mxPoint as="targetPoint" /><mxPoint as="sourcePoint" /><Array as="points"><mxPoint x="180.0" y="360" /></Array></mxGeometry></mxCell><mxCell id="1023" value="message" parent="1" style="html=1;curved=0;rounded=0;verticalAlign=bottom;endArrow=block;dashed=0;" edge="1" source="1006" target="1007"><mxGeometry relative="1" as="geometry"><mxPoint as="targetPoint" /><mxPoint as="sourcePoint" /><Array as="points"><mxPoint x="380.0" y="370" /></Array></mxGeometry></mxCell><mxCell id="1024" value="message" parent="1" style="html=1;curved=0;rounded=0;verticalAlign=bottom;endArrow=block;dashed=0;" edge="1" source="1007" target="1006"><mxGeometry relative="1" as="geometry"><mxPoint as="targetPoint" /><mxPoint as="sourcePoint" /><Array as="points"><mxPoint x="380.0" y="390" /></Array></mxGeometry></mxCell><mxCell id="1025" value="message" parent="1" style="html=1;curved=0;rounded=0;verticalAlign=bottom;endArrow=block;dashed=0;" edge="1" source="1006" target="1005"><mxGeometry relative="1" as="geometry"><mxPoint as="targetPoint" /><mxPoint as="sourcePoint" /><Array as="points"><mxPoint x="180.0" y="400" /></Array></mxGeometry></mxCell><mxCell id="1026" value="message" parent="1" style="html=1;curved=0;rounded=0;verticalAlign=bottom;endArrow=block;dashed=0;" edge="1" source="1005" target="1007"><mxGeometry relative="1" as="geometry"><mxPoint as="targetPoint" /><mxPoint as="sourcePoint" /><Array as="points"><mxPoint x="280.0" y="420" /></Array></mxGeometry></mxCell><mxCell id="1027" value="message" parent="1" style="html=1;curved=0;rounded=0;verticalAlign=bottom;endArrow=block;dashed=0;" edge="1" source="1005" target="1006"><mxGeometry relative="1" as="geometry"><mxPoint as="targetPoint" /><mxPoint as="sourcePoint" /><Array as="points"><mxPoint x="180.0" y="440" /></Array></mxGeometry></mxCell><mxCell id="1028" value="message" parent="1" style="html=1;curved=0;rounded=0;verticalAlign=bottom;endArrow=block;dashed=0;" edge="1" source="1007" target="1005"><mxGeometry relative="1" as="geometry"><mxPoint as="targetPoint" /><mxPoint as="sourcePoint" /><Array as="points"><mxPoint x="280.0" y="460" /></Array></mxGeometry></mxCell><mxCell id="1029" value="message" parent="1" style="html=1;curved=0;rounded=0;verticalAlign=bottom;endArrow=block;dashed=0;" edge="1" source="1007" target="1006"><mxGeometry relative="1" as="geometry"><mxPoint as="targetPoint" /><mxPoint as="sourcePoint" /><Array as="points"><mxPoint x="380.0" y="480" /></Array></mxGeometry></mxCell></root></mxGraphModel></diagram></mxfile>